solid 
   facet normal 6.886201e-01 1.318858e-02 -7.250024e-01
      outer loop
         vertex 8.246211e-01 -3.500000e+00 2.133931e-01
         vertex 1.442221e+00 -3.500000e+00 8.000000e-01
         vertex 9.992349e-01 -6.500000e+00 3.246711e-01
      endloop
   endfacet
   facet normal 9.064341e-01 0.000000e+00 -4.223472e-01
      outer loop
         vertex 1.442221e+00 -3.500000e+00 8.000000e-01
         vertex 1.442221e+00 6.500000e+00 8.000000e-01
         vertex 1.616796e+00 -6.500000e+00 1.174671e+00
      endloop
   endfacet
   facet normal 9.794150e-01 7.338606e-03 -2.017237e-01
      outer loop
         vertex 1.442221e+00 6.500000e+00 8.000000e-01
         vertex 1.680487e+00 6.500000e+00 1.956836e+00
         vertex 1.616796e+00 -6.500000e+00 1.174671e+00
      endloop
   endfacet
   facet normal 8.744603e-01 5.733946e-03 4.850632e-01
      outer loop
         vertex 1.680487e+00 6.500000e+00 1.956836e+00
         vertex 1.107560e+00 6.500000e+00 2.989694e+00
         vertex 1.616796e+00 -6.500000e+00 2.225329e+00
      endloop
   endfacet
   facet normal 3.473859e-01 3.282343e-03 9.377165e-01
      outer loop
         vertex 1.107560e+00 6.500000e+00 2.989694e+00
         vertex -2.296787e-15 6.500000e+00 3.400000e+00
         vertex 9.992349e-01 -6.500000e+00 3.075329e+00
      endloop
   endfacet
   facet normal -3.473859e-01 3.282343e-03 9.377165e-01
      outer loop
         vertex -2.296787e-15 6.500000e+00 3.400000e+00
         vertex -1.107560e+00 6.500000e+00 2.989694e+00
         vertex -9.992349e-01 -6.500000e+00 3.075329e+00
      endloop
   endfacet
   facet normal -8.744603e-01 5.733946e-03 4.850632e-01
      outer loop
         vertex -1.107560e+00 6.500000e+00 2.989694e+00
         vertex -1.680487e+00 6.500000e+00 1.956836e+00
         vertex -1.616796e+00 -6.500000e+00 2.225329e+00
      endloop
   endfacet
   facet normal -9.794150e-01 7.338606e-03 -2.017237e-01
      outer loop
         vertex -1.680487e+00 6.500000e+00 1.956836e+00
         vertex -1.442221e+00 6.500000e+00 8.000000e-01
         vertex -1.616796e+00 -6.500000e+00 1.174671e+00
      endloop
   endfacet
   facet normal -9.064341e-01 0.000000e+00 -4.223472e-01
      outer loop
         vertex -1.442221e+00 6.500000e+00 8.000000e-01
         vertex -1.442221e+00 -3.500000e+00 8.000000e-01
         vertex -1.616796e+00 -6.500000e+00 1.174671e+00
      endloop
   endfacet
   facet normal -6.886201e-01 1.318858e-02 -7.250024e-01
      outer loop
         vertex -1.442221e+00 -3.500000e+00 8.000000e-01
         vertex -8.246211e-01 -3.500000e+00 2.133931e-01
         vertex -9.992349e-01 -6.500000e+00 3.246711e-01
      endloop
   endfacet
   facet normal -2.505248e-01 9.633688e-17 -9.681102e-01
      outer loop
         vertex -8.246211e-01 -3.500000e+00 2.133931e-01
         vertex -1.144024e-15 -3.500000e+00 -2.220446e-16
         vertex -1.954424e-15 -6.500000e+00 -3.108624e-16
      endloop
   endfacet
   facet normal -3.089708e-01 -1.728843e-02 -9.509144e-01
      outer loop
         vertex -1.954424e-15 -6.500000e+00 -3.108624e-16
         vertex -9.992349e-01 -6.500000e+00 3.246711e-01
         vertex -8.246211e-01 -3.500000e+00 2.133931e-01
      endloop
   endfacet
   facet normal -8.087366e-01 -2.632139e-02 -5.875817e-01
      outer loop
         vertex -9.992349e-01 -6.500000e+00 3.246711e-01
         vertex -1.616796e+00 -6.500000e+00 1.174671e+00
         vertex -1.442221e+00 -3.500000e+00 8.000000e-01
      endloop
   endfacet
   facet normal -9.999880e-01 -4.899205e-03 -0.000000e+00
      outer loop
         vertex -1.616796e+00 -6.500000e+00 1.174671e+00
         vertex -1.616796e+00 -6.500000e+00 2.225329e+00
         vertex -1.680487e+00 6.500000e+00 1.956836e+00
      endloop
   endfacet
   facet normal -8.090136e-01 -2.869375e-03 5.877829e-01
      outer loop
         vertex -1.616796e+00 -6.500000e+00 2.225329e+00
         vertex -9.992349e-01 -6.500000e+00 3.075329e+00
         vertex -1.107560e+00 6.500000e+00 2.989694e+00
      endloop
   endfacet
   facet normal -3.090171e-01 -9.775979e-18 9.510565e-01
      outer loop
         vertex -9.992349e-01 -6.500000e+00 3.075329e+00
         vertex -1.885523e-15 -6.500000e+00 3.400000e+00
         vertex -2.296787e-15 6.500000e+00 3.400000e+00
      endloop
   endfacet
   facet normal 3.090171e-01 1.219261e-17 9.510565e-01
      outer loop
         vertex -1.885523e-15 -6.500000e+00 3.400000e+00
         vertex 9.992349e-01 -6.500000e+00 3.075329e+00
         vertex -2.296787e-15 6.500000e+00 3.400000e+00
      endloop
   endfacet
   facet normal 8.090136e-01 -2.869375e-03 5.877829e-01
      outer loop
         vertex 9.992349e-01 -6.500000e+00 3.075329e+00
         vertex 1.616796e+00 -6.500000e+00 2.225329e+00
         vertex 1.107560e+00 6.500000e+00 2.989694e+00
      endloop
   endfacet
   facet normal 9.999880e-01 -4.899205e-03 0.000000e+00
      outer loop
         vertex 1.616796e+00 -6.500000e+00 2.225329e+00
         vertex 1.616796e+00 -6.500000e+00 1.174671e+00
         vertex 1.680487e+00 6.500000e+00 1.956836e+00
      endloop
   endfacet
   facet normal 8.087366e-01 -2.632139e-02 -5.875817e-01
      outer loop
         vertex 1.616796e+00 -6.500000e+00 1.174671e+00
         vertex 9.992349e-01 -6.500000e+00 3.246711e-01
         vertex 1.442221e+00 -3.500000e+00 8.000000e-01
      endloop
   endfacet
   facet normal 3.089708e-01 -1.728843e-02 -9.509144e-01
      outer loop
         vertex 9.992349e-01 -6.500000e+00 3.246711e-01
         vertex -1.954424e-15 -6.500000e+00 -3.108624e-16
         vertex 8.246211e-01 -3.500000e+00 2.133931e-01
      endloop
   endfacet
   facet normal 2.505248e-01 -3.901324e-17 -9.681102e-01
      outer loop
         vertex -1.954424e-15 -6.500000e+00 -3.108624e-16
         vertex -1.144024e-15 -3.500000e+00 -2.220446e-16
         vertex 8.246211e-01 -3.500000e+00 2.133931e-01
      endloop
   endfacet
   facet normal 0.000000e+00 1.000000e+00 -0.000000e+00
      outer loop
         vertex 1.680487e+00 6.500000e+00 1.956836e+00
         vertex 1.442221e+00 6.500000e+00 8.000000e-01
         vertex -1.442221e+00 6.500000e+00 8.000000e-01
      endloop
   endfacet
   facet normal -0.000000e+00 1.000000e+00 0.000000e+00
      outer loop
         vertex -1.442221e+00 6.500000e+00 8.000000e-01
         vertex -1.680487e+00 6.500000e+00 1.956836e+00
         vertex 1.680487e+00 6.500000e+00 1.956836e+00
      endloop
   endfacet
   facet normal 0.000000e+00 1.000000e+00 0.000000e+00
      outer loop
         vertex -1.680487e+00 6.500000e+00 1.956836e+00
         vertex -1.107560e+00 6.500000e+00 2.989694e+00
         vertex 1.680487e+00 6.500000e+00 1.956836e+00
      endloop
   endfacet
   facet normal 0.000000e+00 1.000000e+00 0.000000e+00
      outer loop
         vertex -1.107560e+00 6.500000e+00 2.989694e+00
         vertex -2.296787e-15 6.500000e+00 3.400000e+00
         vertex 1.680487e+00 6.500000e+00 1.956836e+00
      endloop
   endfacet
   facet normal 0.000000e+00 1.000000e+00 0.000000e+00
      outer loop
         vertex -2.296787e-15 6.500000e+00 3.400000e+00
         vertex 1.107560e+00 6.500000e+00 2.989694e+00
         vertex 1.680487e+00 6.500000e+00 1.956836e+00
      endloop
   endfacet
   facet normal 0.000000e+00 1.000000e+00 0.000000e+00
      outer loop
         vertex -1.442221e+00 -3.500000e+00 8.000000e-01
         vertex 1.442221e+00 -3.500000e+00 8.000000e-01
         vertex 8.246211e-01 -3.500000e+00 2.133931e-01
      endloop
   endfacet
   facet normal 0.000000e+00 1.000000e+00 -0.000000e+00
      outer loop
         vertex 8.246211e-01 -3.500000e+00 2.133931e-01
         vertex -1.144024e-15 -3.500000e+00 -2.220446e-16
         vertex -1.442221e+00 -3.500000e+00 8.000000e-01
      endloop
   endfacet
   facet normal -0.000000e+00 1.000000e+00 -0.000000e+00
      outer loop
         vertex -1.144024e-15 -3.500000e+00 -2.220446e-16
         vertex -8.246211e-01 -3.500000e+00 2.133931e-01
         vertex -1.442221e+00 -3.500000e+00 8.000000e-01
      endloop
   endfacet
   facet normal 0.000000e+00 0.000000e+00 -1.000000e+00
      outer loop
         vertex 1.442221e+00 -3.500000e+00 8.000000e-01
         vertex -1.442221e+00 -3.500000e+00 8.000000e-01
         vertex -1.442221e+00 6.500000e+00 8.000000e-01
      endloop
   endfacet
   facet normal -0.000000e+00 -0.000000e+00 -1.000000e+00
      outer loop
         vertex -1.442221e+00 6.500000e+00 8.000000e-01
         vertex 1.442221e+00 6.500000e+00 8.000000e-01
         vertex 1.442221e+00 -3.500000e+00 8.000000e-01
      endloop
   endfacet
   facet normal -0.000000e+00 1.000000e+00 0.000000e+00
      outer loop
         vertex -1.954424e-15 -6.500000e+00 -3.108624e-16
         vertex -1.700000e+00 -6.500000e+00 0.000000e+00
         vertex -9.992349e-01 -6.500000e+00 3.246711e-01
      endloop
   endfacet
   facet normal -0.000000e+00 1.000000e+00 0.000000e+00
      outer loop
         vertex -1.700000e+00 -6.500000e+00 0.000000e+00
         vertex -2.407107e+00 -6.500000e+00 2.928932e-01
         vertex -1.616796e+00 -6.500000e+00 1.174671e+00
      endloop
   endfacet
   facet normal -0.000000e+00 1.000000e+00 0.000000e+00
      outer loop
         vertex -2.407107e+00 -6.500000e+00 2.928932e-01
         vertex -2.700000e+00 -6.500000e+00 1.000000e+00
         vertex -1.616796e+00 -6.500000e+00 1.174671e+00
      endloop
   endfacet
   facet normal 0.000000e+00 1.000000e+00 0.000000e+00
      outer loop
         vertex -2.700000e+00 -6.500000e+00 1.000000e+00
         vertex -2.700000e+00 -6.500000e+00 2.400000e+00
         vertex -1.616796e+00 -6.500000e+00 2.225329e+00
      endloop
   endfacet
   facet normal 0.000000e+00 1.000000e+00 0.000000e+00
      outer loop
         vertex -2.700000e+00 -6.500000e+00 2.400000e+00
         vertex -2.407107e+00 -6.500000e+00 3.107107e+00
         vertex -1.616796e+00 -6.500000e+00 2.225329e+00
      endloop
   endfacet
   facet normal 0.000000e+00 1.000000e+00 0.000000e+00
      outer loop
         vertex -2.407107e+00 -6.500000e+00 3.107107e+00
         vertex -1.700000e+00 -6.500000e+00 3.400000e+00
         vertex -1.616796e+00 -6.500000e+00 2.225329e+00
      endloop
   endfacet
   facet normal 0.000000e+00 1.000000e+00 0.000000e+00
      outer loop
         vertex -1.700000e+00 -6.500000e+00 3.400000e+00
         vertex -1.885523e-15 -6.500000e+00 3.400000e+00
         vertex -9.992349e-01 -6.500000e+00 3.075329e+00
      endloop
   endfacet
   facet normal 0.000000e+00 1.000000e+00 -0.000000e+00
      outer loop
         vertex -9.992349e-01 -6.500000e+00 3.075329e+00
         vertex -1.616796e+00 -6.500000e+00 2.225329e+00
         vertex -1.700000e+00 -6.500000e+00 3.400000e+00
      endloop
   endfacet
   facet normal 0.000000e+00 1.000000e+00 -0.000000e+00
      outer loop
         vertex -1.616796e+00 -6.500000e+00 2.225329e+00
         vertex -1.616796e+00 -6.500000e+00 1.174671e+00
         vertex -2.700000e+00 -6.500000e+00 1.000000e+00
      endloop
   endfacet
   facet normal 0.000000e+00 1.000000e+00 0.000000e+00
      outer loop
         vertex -1.616796e+00 -6.500000e+00 1.174671e+00
         vertex -9.992349e-01 -6.500000e+00 3.246711e-01
         vertex -1.700000e+00 -6.500000e+00 0.000000e+00
      endloop
   endfacet
   facet normal 0.000000e+00 1.000000e+00 -0.000000e+00
      outer loop
         vertex 2.700000e+00 -6.500000e+00 1.700000e+00
         vertex 2.700000e+00 -6.500000e+00 1.000000e+00
         vertex 1.616796e+00 -6.500000e+00 1.174671e+00
      endloop
   endfacet
   facet normal 0.000000e+00 1.000000e+00 -0.000000e+00
      outer loop
         vertex 2.700000e+00 -6.500000e+00 1.000000e+00
         vertex 2.566025e+00 -6.500000e+00 5.000000e-01
         vertex 1.616796e+00 -6.500000e+00 1.174671e+00
      endloop
   endfacet
   facet normal 0.000000e+00 1.000000e+00 -0.000000e+00
      outer loop
         vertex 2.566025e+00 -6.500000e+00 5.000000e-01
         vertex 2.200000e+00 -6.500000e+00 1.339746e-01
         vertex 1.616796e+00 -6.500000e+00 1.174671e+00
      endloop
   endfacet
   facet normal 0.000000e+00 1.000000e+00 -0.000000e+00
      outer loop
         vertex 2.200000e+00 -6.500000e+00 1.339746e-01
         vertex 1.700000e+00 -6.500000e+00 0.000000e+00
         vertex 1.616796e+00 -6.500000e+00 1.174671e+00
      endloop
   endfacet
   facet normal 0.000000e+00 1.000000e+00 0.000000e+00
      outer loop
         vertex 1.700000e+00 -6.500000e+00 0.000000e+00
         vertex -1.954424e-15 -6.500000e+00 -3.108624e-16
         vertex 9.992349e-01 -6.500000e+00 3.246711e-01
      endloop
   endfacet
   facet normal 0.000000e+00 1.000000e+00 0.000000e+00
      outer loop
         vertex 9.992349e-01 -6.500000e+00 3.246711e-01
         vertex 1.616796e+00 -6.500000e+00 1.174671e+00
         vertex 1.700000e+00 -6.500000e+00 0.000000e+00
      endloop
   endfacet
   facet normal 0.000000e+00 1.000000e+00 0.000000e+00
      outer loop
         vertex 1.616796e+00 -6.500000e+00 1.174671e+00
         vertex 1.616796e+00 -6.500000e+00 2.225329e+00
         vertex 2.700000e+00 -6.500000e+00 1.700000e+00
      endloop
   endfacet
   facet normal -0.000000e+00 1.000000e+00 0.000000e+00
      outer loop
         vertex 1.616796e+00 -6.500000e+00 2.225329e+00
         vertex 9.992349e-01 -6.500000e+00 3.075329e+00
         vertex 1.850000e+00 -6.500000e+00 3.172243e+00
      endloop
   endfacet
   facet normal -0.000000e+00 1.000000e+00 0.000000e+00
      outer loop
         vertex 9.992349e-01 -6.500000e+00 3.075329e+00
         vertex -1.885523e-15 -6.500000e+00 3.400000e+00
         vertex 1.000000e+00 -6.500000e+00 3.400000e+00
      endloop
   endfacet
   facet normal 0.000000e+00 1.000000e+00 0.000000e+00
      outer loop
         vertex 1.000000e+00 -6.500000e+00 3.400000e+00
         vertex 1.850000e+00 -6.500000e+00 3.172243e+00
         vertex 9.992349e-01 -6.500000e+00 3.075329e+00
      endloop
   endfacet
   facet normal 0.000000e+00 1.000000e+00 0.000000e+00
      outer loop
         vertex 1.850000e+00 -6.500000e+00 3.172243e+00
         vertex 2.472243e+00 -6.500000e+00 2.550000e+00
         vertex 1.616796e+00 -6.500000e+00 2.225329e+00
      endloop
   endfacet
   facet normal 0.000000e+00 1.000000e+00 0.000000e+00
      outer loop
         vertex 2.472243e+00 -6.500000e+00 2.550000e+00
         vertex 2.700000e+00 -6.500000e+00 1.700000e+00
         vertex 1.616796e+00 -6.500000e+00 2.225329e+00
      endloop
   endfacet
   facet normal -3.826834e-01 -0.000000e+00 -9.238795e-01
      outer loop
         vertex -2.407107e+00 -8.000000e+00 2.928932e-01
         vertex -2.407107e+00 -6.500000e+00 2.928932e-01
         vertex -1.700000e+00 -6.500000e+00 0.000000e+00
      endloop
   endfacet
   facet normal -3.826834e-01 0.000000e+00 -9.238795e-01
      outer loop
         vertex -1.700000e+00 -8.000000e+00 0.000000e+00
         vertex -2.407107e+00 -8.000000e+00 2.928932e-01
         vertex -1.700000e+00 -6.500000e+00 0.000000e+00
      endloop
   endfacet
   facet normal -9.238796e-01 -0.000000e+00 -3.826834e-01
      outer loop
         vertex -2.700000e+00 -8.000000e+00 1.000000e+00
         vertex -2.700000e+00 -6.500000e+00 1.000000e+00
         vertex -2.407107e+00 -6.500000e+00 2.928932e-01
      endloop
   endfacet
   facet normal -9.238796e-01 0.000000e+00 -3.826834e-01
      outer loop
         vertex -2.407107e+00 -8.000000e+00 2.928932e-01
         vertex -2.700000e+00 -8.000000e+00 1.000000e+00
         vertex -2.407107e+00 -6.500000e+00 2.928932e-01
      endloop
   endfacet
   facet normal -1.000000e+00 0.000000e+00 0.000000e+00
      outer loop
         vertex -2.700000e+00 -6.500000e+00 2.400000e+00
         vertex -2.700000e+00 -6.500000e+00 1.000000e+00
         vertex -2.700000e+00 -8.000000e+00 1.000000e+00
      endloop
   endfacet
   facet normal -1.000000e+00 0.000000e+00 0.000000e+00
      outer loop
         vertex -2.700000e+00 -8.000000e+00 1.000000e+00
         vertex -2.700000e+00 -8.000000e+00 2.400000e+00
         vertex -2.700000e+00 -6.500000e+00 2.400000e+00
      endloop
   endfacet
   facet normal -3.826836e-01 0.000000e+00 9.238795e-01
      outer loop
         vertex -1.700000e+00 -6.500000e+00 3.400000e+00
         vertex -2.407107e+00 -6.500000e+00 3.107107e+00
         vertex -2.407107e+00 -8.000000e+00 3.107107e+00
      endloop
   endfacet
   facet normal -3.826836e-01 0.000000e+00 9.238795e-01
      outer loop
         vertex -1.700000e+00 -6.500000e+00 3.400000e+00
         vertex -2.407107e+00 -8.000000e+00 3.107107e+00
         vertex -1.700000e+00 -8.000000e+00 3.400000e+00
      endloop
   endfacet
   facet normal -9.238795e-01 0.000000e+00 3.826835e-01
      outer loop
         vertex -2.407107e+00 -6.500000e+00 3.107107e+00
         vertex -2.700000e+00 -6.500000e+00 2.400000e+00
         vertex -2.700000e+00 -8.000000e+00 2.400000e+00
      endloop
   endfacet
   facet normal -9.238795e-01 0.000000e+00 3.826835e-01
      outer loop
         vertex -2.407107e+00 -6.500000e+00 3.107107e+00
         vertex -2.700000e+00 -8.000000e+00 2.400000e+00
         vertex -2.407107e+00 -8.000000e+00 3.107107e+00
      endloop
   endfacet
   facet normal -0.000000e+00 0.000000e+00 1.000000e+00
      outer loop
         vertex -1.885523e-15 -6.500000e+00 3.400000e+00
         vertex -1.700000e+00 -6.500000e+00 3.400000e+00
         vertex -1.700000e+00 -8.000000e+00 3.400000e+00
      endloop
   endfacet
   facet normal 0.000000e+00 0.000000e+00 1.000000e+00
      outer loop
         vertex -1.700000e+00 -8.000000e+00 3.400000e+00
         vertex 1.000000e+00 -8.000000e+00 3.400000e+00
         vertex -1.885523e-15 -6.500000e+00 3.400000e+00
      endloop
   endfacet
   facet normal 0.000000e+00 0.000000e+00 1.000000e+00
      outer loop
         vertex 1.000000e+00 -8.000000e+00 3.400000e+00
         vertex 1.000000e+00 -6.500000e+00 3.400000e+00
         vertex -1.885523e-15 -6.500000e+00 3.400000e+00
      endloop
   endfacet
   facet normal 1.828603e-16 0.000000e+00 -1.000000e+00
      outer loop
         vertex 1.700000e+00 -8.000000e+00 0.000000e+00
         vertex -1.954424e-15 -6.500000e+00 -3.108624e-16
         vertex 1.700000e+00 -6.500000e+00 0.000000e+00
      endloop
   endfacet
   facet normal -1.828603e-16 1.973730e-16 -1.000000e+00
      outer loop
         vertex -1.700000e+00 -8.000000e+00 -2.960595e-16
         vertex -1.700000e+00 -6.500000e+00 0.000000e+00
         vertex -1.954424e-15 -6.500000e+00 -3.108624e-16
      endloop
   endfacet
   facet normal 8.707632e-17 -1.085551e-16 -1.000000e+00
      outer loop
         vertex -1.954424e-15 -6.500000e+00 -3.108624e-16
         vertex 1.700000e+00 -8.000000e+00 0.000000e+00
         vertex -1.700000e+00 -8.000000e+00 -2.960595e-16
      endloop
   endfacet
   facet normal 9.659258e-01 0.000000e+00 -2.588190e-01
      outer loop
         vertex 2.700000e+00 -8.000000e+00 1.000000e+00
         vertex 2.566025e+00 -6.500000e+00 5.000000e-01
         vertex 2.700000e+00 -6.500000e+00 1.000000e+00
      endloop
   endfacet
   facet normal 7.069244e-01 2.271026e-02 -7.069245e-01
      outer loop
         vertex 2.407107e+00 -8.000000e+00 2.928932e-01
         vertex 2.200000e+00 -6.500000e+00 1.339746e-01
         vertex 2.566025e+00 -6.500000e+00 5.000000e-01
      endloop
   endfacet
   facet normal 2.588190e-01 0.000000e+00 -9.659258e-01
      outer loop
         vertex 1.700000e+00 -8.000000e+00 0.000000e+00
         vertex 1.700000e+00 -6.500000e+00 0.000000e+00
         vertex 2.200000e+00 -6.500000e+00 1.339746e-01
      endloop
   endfacet
   facet normal 3.822958e-01 -4.499792e-02 -9.229437e-01
      outer loop
         vertex 2.200000e+00 -6.500000e+00 1.339746e-01
         vertex 2.407107e+00 -8.000000e+00 2.928932e-01
         vertex 1.700000e+00 -8.000000e+00 0.000000e+00
      endloop
   endfacet
   facet normal 9.229437e-01 -4.499794e-02 -3.822958e-01
      outer loop
         vertex 2.566025e+00 -6.500000e+00 5.000000e-01
         vertex 2.700000e+00 -8.000000e+00 1.000000e+00
         vertex 2.407107e+00 -8.000000e+00 2.928932e-01
      endloop
   endfacet
   facet normal 2.588192e-01 -0.000000e+00 9.659258e-01
      outer loop
         vertex 1.000000e+00 -8.000000e+00 3.400000e+00
         vertex 1.850000e+00 -8.000000e+00 3.172243e+00
         vertex 1.850000e+00 -6.500000e+00 3.172243e+00
      endloop
   endfacet
   facet normal 2.588192e-01 0.000000e+00 9.659258e-01
      outer loop
         vertex 1.000000e+00 -8.000000e+00 3.400000e+00
         vertex 1.850000e+00 -6.500000e+00 3.172243e+00
         vertex 1.000000e+00 -6.500000e+00 3.400000e+00
      endloop
   endfacet
   facet normal 7.071068e-01 -0.000000e+00 7.071067e-01
      outer loop
         vertex 1.850000e+00 -8.000000e+00 3.172243e+00
         vertex 2.472243e+00 -8.000000e+00 2.550000e+00
         vertex 2.472243e+00 -6.500000e+00 2.550000e+00
      endloop
   endfacet
   facet normal 7.071068e-01 0.000000e+00 7.071067e-01
      outer loop
         vertex 1.850000e+00 -8.000000e+00 3.172243e+00
         vertex 2.472243e+00 -6.500000e+00 2.550000e+00
         vertex 1.850000e+00 -6.500000e+00 3.172243e+00
      endloop
   endfacet
   facet normal 9.659258e-01 -0.000000e+00 2.588192e-01
      outer loop
         vertex 2.472243e+00 -8.000000e+00 2.550000e+00
         vertex 2.700000e+00 -8.000000e+00 1.700000e+00
         vertex 2.700000e+00 -6.500000e+00 1.700000e+00
      endloop
   endfacet
   facet normal 9.659258e-01 0.000000e+00 2.588192e-01
      outer loop
         vertex 2.472243e+00 -8.000000e+00 2.550000e+00
         vertex 2.700000e+00 -6.500000e+00 1.700000e+00
         vertex 2.472243e+00 -6.500000e+00 2.550000e+00
      endloop
   endfacet
   facet normal 1.000000e+00 0.000000e+00 0.000000e+00
      outer loop
         vertex 2.700000e+00 -8.000000e+00 1.700000e+00
         vertex 2.700000e+00 -8.000000e+00 1.000000e+00
         vertex 2.700000e+00 -6.500000e+00 1.000000e+00
      endloop
   endfacet
   facet normal 1.000000e+00 0.000000e+00 0.000000e+00
      outer loop
         vertex 2.700000e+00 -6.500000e+00 1.000000e+00
         vertex 2.700000e+00 -6.500000e+00 1.700000e+00
         vertex 2.700000e+00 -8.000000e+00 1.700000e+00
      endloop
   endfacet
   facet normal -0.000000e+00 -1.000000e+00 0.000000e+00
      outer loop
         vertex -1.700000e+00 -8.000000e+00 -2.960595e-16
         vertex 1.700000e+00 -8.000000e+00 0.000000e+00
         vertex 1.000000e+00 -8.000000e+00 3.400000e+00
      endloop
   endfacet
   facet normal -0.000000e+00 -1.000000e+00 0.000000e+00
      outer loop
         vertex 1.700000e+00 -8.000000e+00 0.000000e+00
         vertex 2.407107e+00 -8.000000e+00 2.928932e-01
         vertex 2.700000e+00 -8.000000e+00 1.000000e+00
      endloop
   endfacet
   facet normal 0.000000e+00 -1.000000e+00 -0.000000e+00
      outer loop
         vertex 2.700000e+00 -8.000000e+00 1.000000e+00
         vertex 2.700000e+00 -8.000000e+00 1.700000e+00
         vertex 1.700000e+00 -8.000000e+00 0.000000e+00
      endloop
   endfacet
   facet normal -0.000000e+00 -1.000000e+00 -0.000000e+00
      outer loop
         vertex 2.700000e+00 -8.000000e+00 1.700000e+00
         vertex 2.472243e+00 -8.000000e+00 2.550000e+00
         vertex 1.850000e+00 -8.000000e+00 3.172243e+00
      endloop
   endfacet
   facet normal 0.000000e+00 -1.000000e+00 0.000000e+00
      outer loop
         vertex 1.850000e+00 -8.000000e+00 3.172243e+00
         vertex 1.000000e+00 -8.000000e+00 3.400000e+00
         vertex 2.700000e+00 -8.000000e+00 1.700000e+00
      endloop
   endfacet
   facet normal 0.000000e+00 -1.000000e+00 0.000000e+00
      outer loop
         vertex 1.000000e+00 -8.000000e+00 3.400000e+00
         vertex -1.700000e+00 -8.000000e+00 3.400000e+00
         vertex -1.700000e+00 -8.000000e+00 -2.960595e-16
      endloop
   endfacet
   facet normal 0.000000e+00 -1.000000e+00 -0.000000e+00
      outer loop
         vertex -1.700000e+00 -8.000000e+00 3.400000e+00
         vertex -2.407107e+00 -8.000000e+00 3.107107e+00
         vertex -2.700000e+00 -8.000000e+00 2.400000e+00
      endloop
   endfacet
   facet normal 0.000000e+00 -1.000000e+00 0.000000e+00
      outer loop
         vertex -2.700000e+00 -8.000000e+00 2.400000e+00
         vertex -2.700000e+00 -8.000000e+00 1.000000e+00
         vertex -1.700000e+00 -8.000000e+00 -2.960595e-16
      endloop
   endfacet
   facet normal 0.000000e+00 -1.000000e+00 0.000000e+00
      outer loop
         vertex -2.700000e+00 -8.000000e+00 1.000000e+00
         vertex -2.407107e+00 -8.000000e+00 2.928932e-01
         vertex -1.700000e+00 -8.000000e+00 -2.960595e-16
      endloop
   endfacet
   facet normal 0.000000e+00 -1.000000e+00 0.000000e+00
      outer loop
         vertex 1.000000e+00 -8.000000e+00 3.400000e+00
         vertex 1.700000e+00 -8.000000e+00 0.000000e+00
         vertex 2.700000e+00 -8.000000e+00 1.700000e+00
      endloop
   endfacet
   facet normal 0.000000e+00 -1.000000e+00 -0.000000e+00
      outer loop
         vertex -1.700000e+00 -8.000000e+00 -2.960595e-16
         vertex -1.700000e+00 -8.000000e+00 3.400000e+00
         vertex -2.700000e+00 -8.000000e+00 2.400000e+00
      endloop
   endfacet
endsolid
