solid 
   facet normal -0.000000e+00 -1.000000e+00 -0.000000e+00
      outer loop
         vertex 1.385641e+00 -8.000000e-01 0.000000e+00
         vertex 1.385641e+00 -8.000000e-01 1.700000e+01
         vertex -1.385641e+00 -8.000000e-01 1.700000e+01
      endloop
   endfacet
   facet normal 0.000000e+00 -1.000000e+00 0.000000e+00
      outer loop
         vertex -1.385641e+00 -8.000000e-01 1.700000e+01
         vertex -1.385641e+00 -8.000000e-01 0.000000e+00
         vertex 1.385641e+00 -8.000000e-01 0.000000e+00
      endloop
   endfacet
   facet normal 9.848077e-01 -1.736482e-01 0.000000e+00
      outer loop
         vertex 1.385641e+00 -8.000000e-01 0.000000e+00
         vertex 1.575692e+00 2.778371e-01 0.000000e+00
         vertex 1.575692e+00 2.778371e-01 1.700000e+01
      endloop
   endfacet
   facet normal 9.848077e-01 -1.736482e-01 0.000000e+00
      outer loop
         vertex 1.385641e+00 -8.000000e-01 0.000000e+00
         vertex 1.575692e+00 2.778371e-01 1.700000e+01
         vertex 1.385641e+00 -8.000000e-01 1.700000e+01
      endloop
   endfacet
   facet normal 8.660254e-01 5.000001e-01 -0.000000e+00
      outer loop
         vertex 1.575692e+00 2.778371e-01 0.000000e+00
         vertex 1.028460e+00 1.225671e+00 0.000000e+00
         vertex 1.028460e+00 1.225671e+00 1.700000e+01
      endloop
   endfacet
   facet normal 8.660254e-01 5.000001e-01 0.000000e+00
      outer loop
         vertex 1.575692e+00 2.778371e-01 0.000000e+00
         vertex 1.028460e+00 1.225671e+00 1.700000e+01
         vertex 1.575692e+00 2.778371e-01 1.700000e+01
      endloop
   endfacet
   facet normal 3.420202e-01 9.396926e-01 -0.000000e+00
      outer loop
         vertex 1.028460e+00 1.225671e+00 0.000000e+00
         vertex 1.221245e-15 1.600000e+00 0.000000e+00
         vertex 1.221245e-15 1.600000e+00 1.700000e+01
      endloop
   endfacet
   facet normal 3.420202e-01 9.396926e-01 0.000000e+00
      outer loop
         vertex 1.028460e+00 1.225671e+00 0.000000e+00
         vertex 1.221245e-15 1.600000e+00 1.700000e+01
         vertex 1.028460e+00 1.225671e+00 1.700000e+01
      endloop
   endfacet
   facet normal -3.420202e-01 9.396926e-01 0.000000e+00
      outer loop
         vertex 1.221245e-15 1.600000e+00 0.000000e+00
         vertex -1.028460e+00 1.225671e+00 0.000000e+00
         vertex -1.028460e+00 1.225671e+00 1.700000e+01
      endloop
   endfacet
   facet normal -3.420202e-01 9.396926e-01 0.000000e+00
      outer loop
         vertex 1.221245e-15 1.600000e+00 0.000000e+00
         vertex -1.028460e+00 1.225671e+00 1.700000e+01
         vertex 1.221245e-15 1.600000e+00 1.700000e+01
      endloop
   endfacet
   facet normal -8.660254e-01 5.000001e-01 0.000000e+00
      outer loop
         vertex -1.028460e+00 1.225671e+00 0.000000e+00
         vertex -1.575692e+00 2.778371e-01 0.000000e+00
         vertex -1.575692e+00 2.778371e-01 1.700000e+01
      endloop
   endfacet
   facet normal -8.660254e-01 5.000001e-01 0.000000e+00
      outer loop
         vertex -1.028460e+00 1.225671e+00 0.000000e+00
         vertex -1.575692e+00 2.778371e-01 1.700000e+01
         vertex -1.028460e+00 1.225671e+00 1.700000e+01
      endloop
   endfacet
   facet normal -9.848077e-01 -1.736482e-01 0.000000e+00
      outer loop
         vertex -1.575692e+00 2.778371e-01 0.000000e+00
         vertex -1.385641e+00 -8.000000e-01 0.000000e+00
         vertex -1.385641e+00 -8.000000e-01 1.700000e+01
      endloop
   endfacet
   facet normal -9.848077e-01 -1.736482e-01 0.000000e+00
      outer loop
         vertex -1.575692e+00 2.778371e-01 0.000000e+00
         vertex -1.385641e+00 -8.000000e-01 1.700000e+01
         vertex -1.575692e+00 2.778371e-01 1.700000e+01
      endloop
   endfacet
   facet normal 0.000000e+00 -0.000000e+00 -1.000000e+00
      outer loop
         vertex 1.575692e+00 2.778371e-01 1.700000e+01
         vertex 2.598076e+00 1.500000e+00 1.700000e+01
         vertex 3.000000e+00 0.000000e+00 1.700000e+01
      endloop
   endfacet
   facet normal 0.000000e+00 -0.000000e+00 -1.000000e+00
      outer loop
         vertex 1.028460e+00 1.225671e+00 1.700000e+01
         vertex 1.500000e+00 2.598076e+00 1.700000e+01
         vertex 2.598076e+00 1.500000e+00 1.700000e+01
      endloop
   endfacet
   facet normal 0.000000e+00 0.000000e+00 -1.000000e+00
      outer loop
         vertex 1.221245e-15 1.600000e+00 1.700000e+01
         vertex 1.836970e-16 3.000000e+00 1.700000e+01
         vertex 1.500000e+00 2.598076e+00 1.700000e+01
      endloop
   endfacet
   facet normal 0.000000e+00 0.000000e+00 -1.000000e+00
      outer loop
         vertex 1.221245e-15 1.600000e+00 1.700000e+01
         vertex -1.500000e+00 2.598076e+00 1.700000e+01
         vertex 1.836970e-16 3.000000e+00 1.700000e+01
      endloop
   endfacet
   facet normal 0.000000e+00 0.000000e+00 -1.000000e+00
      outer loop
         vertex -1.028460e+00 1.225671e+00 1.700000e+01
         vertex -2.598076e+00 1.500000e+00 1.700000e+01
         vertex -1.500000e+00 2.598076e+00 1.700000e+01
      endloop
   endfacet
   facet normal 0.000000e+00 0.000000e+00 -1.000000e+00
      outer loop
         vertex -1.575692e+00 2.778371e-01 1.700000e+01
         vertex -3.000000e+00 1.699662e-15 1.700000e+01
         vertex -2.598076e+00 1.500000e+00 1.700000e+01
      endloop
   endfacet
   facet normal 0.000000e+00 0.000000e+00 -1.000000e+00
      outer loop
         vertex -1.385641e+00 -8.000000e-01 1.700000e+01
         vertex -2.598076e+00 -1.500000e+00 1.700000e+01
         vertex -3.000000e+00 1.699662e-15 1.700000e+01
      endloop
   endfacet
   facet normal 0.000000e+00 0.000000e+00 -1.000000e+00
      outer loop
         vertex -1.385641e+00 -8.000000e-01 1.700000e+01
         vertex -1.500000e+00 -2.598076e+00 1.700000e+01
         vertex -2.598076e+00 -1.500000e+00 1.700000e+01
      endloop
   endfacet
   facet normal 0.000000e+00 0.000000e+00 -1.000000e+00
      outer loop
         vertex -1.385641e+00 -8.000000e-01 1.700000e+01
         vertex -5.510911e-16 -3.000000e+00 1.700000e+01
         vertex -1.500000e+00 -2.598076e+00 1.700000e+01
      endloop
   endfacet
   facet normal -0.000000e+00 0.000000e+00 -1.000000e+00
      outer loop
         vertex 1.385641e+00 -8.000000e-01 1.700000e+01
         vertex 1.500000e+00 -2.598076e+00 1.700000e+01
         vertex -5.510911e-16 -3.000000e+00 1.700000e+01
      endloop
   endfacet
   facet normal -0.000000e+00 0.000000e+00 -1.000000e+00
      outer loop
         vertex 1.385641e+00 -8.000000e-01 1.700000e+01
         vertex 2.598076e+00 -1.500000e+00 1.700000e+01
         vertex 1.500000e+00 -2.598076e+00 1.700000e+01
      endloop
   endfacet
   facet normal 0.000000e+00 0.000000e+00 -1.000000e+00
      outer loop
         vertex 1.385641e+00 -8.000000e-01 1.700000e+01
         vertex 3.000000e+00 0.000000e+00 1.700000e+01
         vertex 2.598076e+00 -1.500000e+00 1.700000e+01
      endloop
   endfacet
   facet normal 0.000000e+00 0.000000e+00 -1.000000e+00
      outer loop
         vertex -5.510911e-16 -3.000000e+00 1.700000e+01
         vertex -1.385641e+00 -8.000000e-01 1.700000e+01
         vertex 1.385641e+00 -8.000000e-01 1.700000e+01
      endloop
   endfacet
   facet normal 0.000000e+00 -0.000000e+00 -1.000000e+00
      outer loop
         vertex -3.000000e+00 1.699662e-15 1.700000e+01
         vertex -1.575692e+00 2.778371e-01 1.700000e+01
         vertex -1.385641e+00 -8.000000e-01 1.700000e+01
      endloop
   endfacet
   facet normal -0.000000e+00 0.000000e+00 -1.000000e+00
      outer loop
         vertex -2.598076e+00 1.500000e+00 1.700000e+01
         vertex -1.028460e+00 1.225671e+00 1.700000e+01
         vertex -1.575692e+00 2.778371e-01 1.700000e+01
      endloop
   endfacet
   facet normal -0.000000e+00 0.000000e+00 -1.000000e+00
      outer loop
         vertex -1.500000e+00 2.598076e+00 1.700000e+01
         vertex 1.221245e-15 1.600000e+00 1.700000e+01
         vertex -1.028460e+00 1.225671e+00 1.700000e+01
      endloop
   endfacet
   facet normal 0.000000e+00 0.000000e+00 -1.000000e+00
      outer loop
         vertex 1.500000e+00 2.598076e+00 1.700000e+01
         vertex 1.028460e+00 1.225671e+00 1.700000e+01
         vertex 1.221245e-15 1.600000e+00 1.700000e+01
      endloop
   endfacet
   facet normal 0.000000e+00 0.000000e+00 -1.000000e+00
      outer loop
         vertex 2.598076e+00 1.500000e+00 1.700000e+01
         vertex 1.575692e+00 2.778371e-01 1.700000e+01
         vertex 1.028460e+00 1.225671e+00 1.700000e+01
      endloop
   endfacet
   facet normal 0.000000e+00 0.000000e+00 -1.000000e+00
      outer loop
         vertex 3.000000e+00 0.000000e+00 1.700000e+01
         vertex 1.385641e+00 -8.000000e-01 1.700000e+01
         vertex 1.575692e+00 2.778371e-01 1.700000e+01
      endloop
   endfacet
   facet normal -0.000000e+00 0.000000e+00 -1.000000e+00
      outer loop
         vertex 1.028460e+00 1.225671e+00 0.000000e+00
         vertex 1.575692e+00 2.778371e-01 0.000000e+00
         vertex 1.385641e+00 -8.000000e-01 0.000000e+00
      endloop
   endfacet
   facet normal 0.000000e+00 0.000000e+00 -1.000000e+00
      outer loop
         vertex 1.385641e+00 -8.000000e-01 0.000000e+00
         vertex 8.555520e-16 1.600000e+00 0.000000e+00
         vertex 1.028460e+00 1.225671e+00 0.000000e+00
      endloop
   endfacet
   facet normal 0.000000e+00 0.000000e+00 -1.000000e+00
      outer loop
         vertex 1.385641e+00 -8.000000e-01 0.000000e+00
         vertex -1.028460e+00 1.225671e+00 0.000000e+00
         vertex 8.555520e-16 1.600000e+00 0.000000e+00
      endloop
   endfacet
   facet normal 0.000000e+00 0.000000e+00 -1.000000e+00
      outer loop
         vertex 1.385641e+00 -8.000000e-01 0.000000e+00
         vertex -1.575692e+00 2.778371e-01 0.000000e+00
         vertex -1.028460e+00 1.225671e+00 0.000000e+00
      endloop
   endfacet
   facet normal 0.000000e+00 0.000000e+00 -1.000000e+00
      outer loop
         vertex 1.385641e+00 -8.000000e-01 0.000000e+00
         vertex -1.385641e+00 -8.000000e-01 0.000000e+00
         vertex -1.575692e+00 2.778371e-01 0.000000e+00
      endloop
   endfacet
   facet normal 9.659258e-01 2.588191e-01 -0.000000e+00
      outer loop
         vertex 3.000000e+00 0.000000e+00 1.700000e+01
         vertex 2.598076e+00 1.500000e+00 1.700000e+01
         vertex 2.598076e+00 1.500000e+00 1.900000e+01
      endloop
   endfacet
   facet normal 9.659258e-01 2.588191e-01 0.000000e+00
      outer loop
         vertex 3.000000e+00 0.000000e+00 1.700000e+01
         vertex 2.598076e+00 1.500000e+00 1.900000e+01
         vertex 3.000000e+00 0.000000e+00 1.900000e+01
      endloop
   endfacet
   facet normal 7.071068e-01 7.071068e-01 -0.000000e+00
      outer loop
         vertex 2.598076e+00 1.500000e+00 1.700000e+01
         vertex 1.500000e+00 2.598076e+00 1.700000e+01
         vertex 1.500000e+00 2.598076e+00 1.900000e+01
      endloop
   endfacet
   facet normal 7.071068e-01 7.071068e-01 0.000000e+00
      outer loop
         vertex 2.598076e+00 1.500000e+00 1.700000e+01
         vertex 1.500000e+00 2.598076e+00 1.900000e+01
         vertex 2.598076e+00 1.500000e+00 1.900000e+01
      endloop
   endfacet
   facet normal 2.588191e-01 9.659258e-01 -0.000000e+00
      outer loop
         vertex 1.500000e+00 2.598076e+00 1.700000e+01
         vertex 1.836970e-16 3.000000e+00 1.700000e+01
         vertex 1.836970e-16 3.000000e+00 1.900000e+01
      endloop
   endfacet
   facet normal 2.588191e-01 9.659258e-01 0.000000e+00
      outer loop
         vertex 1.500000e+00 2.598076e+00 1.700000e+01
         vertex 1.836970e-16 3.000000e+00 1.900000e+01
         vertex 1.500000e+00 2.598076e+00 1.900000e+01
      endloop
   endfacet
   facet normal -2.588191e-01 9.659258e-01 0.000000e+00
      outer loop
         vertex 1.836970e-16 3.000000e+00 1.700000e+01
         vertex -1.500000e+00 2.598076e+00 1.700000e+01
         vertex -1.500000e+00 2.598076e+00 1.900000e+01
      endloop
   endfacet
   facet normal -2.588191e-01 9.659258e-01 0.000000e+00
      outer loop
         vertex 1.836970e-16 3.000000e+00 1.700000e+01
         vertex -1.500000e+00 2.598076e+00 1.900000e+01
         vertex 1.836970e-16 3.000000e+00 1.900000e+01
      endloop
   endfacet
   facet normal -7.071068e-01 7.071068e-01 0.000000e+00
      outer loop
         vertex -1.500000e+00 2.598076e+00 1.700000e+01
         vertex -2.598076e+00 1.500000e+00 1.700000e+01
         vertex -2.598076e+00 1.500000e+00 1.900000e+01
      endloop
   endfacet
   facet normal -7.071068e-01 7.071068e-01 0.000000e+00
      outer loop
         vertex -1.500000e+00 2.598076e+00 1.700000e+01
         vertex -2.598076e+00 1.500000e+00 1.900000e+01
         vertex -1.500000e+00 2.598076e+00 1.900000e+01
      endloop
   endfacet
   facet normal -9.659258e-01 2.588191e-01 0.000000e+00
      outer loop
         vertex -2.598076e+00 1.500000e+00 1.700000e+01
         vertex -3.000000e+00 1.699662e-15 1.700000e+01
         vertex -3.000000e+00 1.699662e-15 1.900000e+01
      endloop
   endfacet
   facet normal -9.659258e-01 2.588191e-01 0.000000e+00
      outer loop
         vertex -2.598076e+00 1.500000e+00 1.700000e+01
         vertex -3.000000e+00 1.699662e-15 1.900000e+01
         vertex -2.598076e+00 1.500000e+00 1.900000e+01
      endloop
   endfacet
   facet normal -9.659258e-01 -2.588191e-01 0.000000e+00
      outer loop
         vertex -3.000000e+00 1.699662e-15 1.700000e+01
         vertex -2.598076e+00 -1.500000e+00 1.700000e+01
         vertex -2.598076e+00 -1.500000e+00 1.900000e+01
      endloop
   endfacet
   facet normal -9.659258e-01 -2.588191e-01 0.000000e+00
      outer loop
         vertex -3.000000e+00 1.699662e-15 1.700000e+01
         vertex -2.598076e+00 -1.500000e+00 1.900000e+01
         vertex -3.000000e+00 1.699662e-15 1.900000e+01
      endloop
   endfacet
   facet normal -7.071068e-01 -7.071068e-01 0.000000e+00
      outer loop
         vertex -2.598076e+00 -1.500000e+00 1.700000e+01
         vertex -1.500000e+00 -2.598076e+00 1.700000e+01
         vertex -1.500000e+00 -2.598076e+00 1.900000e+01
      endloop
   endfacet
   facet normal -7.071068e-01 -7.071068e-01 0.000000e+00
      outer loop
         vertex -2.598076e+00 -1.500000e+00 1.700000e+01
         vertex -1.500000e+00 -2.598076e+00 1.900000e+01
         vertex -2.598076e+00 -1.500000e+00 1.900000e+01
      endloop
   endfacet
   facet normal -2.588191e-01 -9.659258e-01 0.000000e+00
      outer loop
         vertex -1.500000e+00 -2.598076e+00 1.700000e+01
         vertex -5.510911e-16 -3.000000e+00 1.700000e+01
         vertex -5.510911e-16 -3.000000e+00 1.900000e+01
      endloop
   endfacet
   facet normal -2.588191e-01 -9.659258e-01 0.000000e+00
      outer loop
         vertex -1.500000e+00 -2.598076e+00 1.700000e+01
         vertex -5.510911e-16 -3.000000e+00 1.900000e+01
         vertex -1.500000e+00 -2.598076e+00 1.900000e+01
      endloop
   endfacet
   facet normal 2.588191e-01 -9.659258e-01 0.000000e+00
      outer loop
         vertex -5.510911e-16 -3.000000e+00 1.700000e+01
         vertex 1.500000e+00 -2.598076e+00 1.700000e+01
         vertex 1.500000e+00 -2.598076e+00 1.900000e+01
      endloop
   endfacet
   facet normal 2.588191e-01 -9.659258e-01 0.000000e+00
      outer loop
         vertex -5.510911e-16 -3.000000e+00 1.700000e+01
         vertex 1.500000e+00 -2.598076e+00 1.900000e+01
         vertex -5.510911e-16 -3.000000e+00 1.900000e+01
      endloop
   endfacet
   facet normal 7.071068e-01 -7.071068e-01 0.000000e+00
      outer loop
         vertex 1.500000e+00 -2.598076e+00 1.700000e+01
         vertex 2.598076e+00 -1.500000e+00 1.700000e+01
         vertex 2.598076e+00 -1.500000e+00 1.900000e+01
      endloop
   endfacet
   facet normal 7.071068e-01 -7.071068e-01 0.000000e+00
      outer loop
         vertex 1.500000e+00 -2.598076e+00 1.700000e+01
         vertex 2.598076e+00 -1.500000e+00 1.900000e+01
         vertex 1.500000e+00 -2.598076e+00 1.900000e+01
      endloop
   endfacet
   facet normal 9.659258e-01 -2.588191e-01 0.000000e+00
      outer loop
         vertex 2.598076e+00 -1.500000e+00 1.700000e+01
         vertex 3.000000e+00 -7.347881e-16 1.700000e+01
         vertex 3.000000e+00 -7.347881e-16 1.900000e+01
      endloop
   endfacet
   facet normal 9.659258e-01 -2.588191e-01 0.000000e+00
      outer loop
         vertex 2.598076e+00 -1.500000e+00 1.700000e+01
         vertex 3.000000e+00 -7.347881e-16 1.900000e+01
         vertex 2.598076e+00 -1.500000e+00 1.900000e+01
      endloop
   endfacet
   facet normal 0.000000e+00 0.000000e+00 1.000000e+00
      outer loop
         vertex 2.598076e+00 -1.500000e+00 1.900000e+01
         vertex 3.000000e+00 0.000000e+00 1.900000e+01
         vertex 2.598076e+00 1.500000e+00 1.900000e+01
      endloop
   endfacet
   facet normal 0.000000e+00 0.000000e+00 1.000000e+00
      outer loop
         vertex 2.598076e+00 1.500000e+00 1.900000e+01
         vertex 1.500000e+00 2.598076e+00 1.900000e+01
         vertex 2.598076e+00 -1.500000e+00 1.900000e+01
      endloop
   endfacet
   facet normal 0.000000e+00 0.000000e+00 1.000000e+00
      outer loop
         vertex 1.500000e+00 2.598076e+00 1.900000e+01
         vertex 1.836970e-16 3.000000e+00 1.900000e+01
         vertex 2.598076e+00 -1.500000e+00 1.900000e+01
      endloop
   endfacet
   facet normal -0.000000e+00 0.000000e+00 1.000000e+00
      outer loop
         vertex 1.836970e-16 3.000000e+00 1.900000e+01
         vertex -1.500000e+00 2.598076e+00 1.900000e+01
         vertex 2.598076e+00 -1.500000e+00 1.900000e+01
      endloop
   endfacet
   facet normal -0.000000e+00 0.000000e+00 1.000000e+00
      outer loop
         vertex -1.500000e+00 2.598076e+00 1.900000e+01
         vertex -2.598076e+00 1.500000e+00 1.900000e+01
         vertex 2.598076e+00 -1.500000e+00 1.900000e+01
      endloop
   endfacet
   facet normal -0.000000e+00 0.000000e+00 1.000000e+00
      outer loop
         vertex -2.598076e+00 1.500000e+00 1.900000e+01
         vertex -3.000000e+00 1.699662e-15 1.900000e+01
         vertex 2.598076e+00 -1.500000e+00 1.900000e+01
      endloop
   endfacet
   facet normal 0.000000e+00 -0.000000e+00 1.000000e+00
      outer loop
         vertex -3.000000e+00 1.699662e-15 1.900000e+01
         vertex -2.598076e+00 -1.500000e+00 1.900000e+01
         vertex 2.598076e+00 -1.500000e+00 1.900000e+01
      endloop
   endfacet
   facet normal 0.000000e+00 -0.000000e+00 1.000000e+00
      outer loop
         vertex -2.598076e+00 -1.500000e+00 1.900000e+01
         vertex -1.500000e+00 -2.598076e+00 1.900000e+01
         vertex 2.598076e+00 -1.500000e+00 1.900000e+01
      endloop
   endfacet
   facet normal 0.000000e+00 -0.000000e+00 1.000000e+00
      outer loop
         vertex -1.500000e+00 -2.598076e+00 1.900000e+01
         vertex -5.510911e-16 -3.000000e+00 1.900000e+01
         vertex 2.598076e+00 -1.500000e+00 1.900000e+01
      endloop
   endfacet
   facet normal 0.000000e+00 -0.000000e+00 1.000000e+00
      outer loop
         vertex -5.510911e-16 -3.000000e+00 1.900000e+01
         vertex 1.500000e+00 -2.598076e+00 1.900000e+01
         vertex 2.598076e+00 -1.500000e+00 1.900000e+01
      endloop
   endfacet
endsolid
