solid 
   facet normal 0.000000e+00 0.000000e+00 -1.000000e+00
      outer loop
         vertex -1.850000e+00 2.265597e-16 0.000000e+00
         vertex -2.598076e+00 -1.500000e+00 0.000000e+00
         vertex -3.000000e+00 3.673940e-16 0.000000e+00
      endloop
   endfacet
   facet normal 0.000000e+00 0.000000e+00 -1.000000e+00
      outer loop
         vertex -1.496681e+00 -1.087403e+00 0.000000e+00
         vertex -1.500000e+00 -2.598076e+00 0.000000e+00
         vertex -2.598076e+00 -1.500000e+00 0.000000e+00
      endloop
   endfacet
   facet normal 0.000000e+00 0.000000e+00 -1.000000e+00
      outer loop
         vertex -5.716814e-01 -1.759455e+00 0.000000e+00
         vertex -5.510911e-16 -3.000000e+00 0.000000e+00
         vertex -1.500000e+00 -2.598076e+00 0.000000e+00
      endloop
   endfacet
   facet normal -0.000000e+00 0.000000e+00 -1.000000e+00
      outer loop
         vertex 5.716814e-01 -1.759455e+00 0.000000e+00
         vertex 1.500000e+00 -2.598076e+00 0.000000e+00
         vertex -5.510911e-16 -3.000000e+00 0.000000e+00
      endloop
   endfacet
   facet normal -0.000000e+00 0.000000e+00 -1.000000e+00
      outer loop
         vertex 1.496681e+00 -1.087403e+00 0.000000e+00
         vertex 2.598076e+00 -1.500000e+00 0.000000e+00
         vertex 1.500000e+00 -2.598076e+00 0.000000e+00
      endloop
   endfacet
   facet normal -0.000000e+00 0.000000e+00 -1.000000e+00
      outer loop
         vertex 1.850000e+00 -4.531193e-16 0.000000e+00
         vertex 3.000000e+00 -2.067056e-15 0.000000e+00
         vertex 2.598076e+00 -1.500000e+00 0.000000e+00
      endloop
   endfacet
   facet normal 0.000000e+00 -0.000000e+00 -1.000000e+00
      outer loop
         vertex 1.850000e+00 -4.531193e-16 0.000000e+00
         vertex 2.598076e+00 1.500000e+00 0.000000e+00
         vertex 3.000000e+00 -2.067056e-15 0.000000e+00
      endloop
   endfacet
   facet normal 0.000000e+00 -0.000000e+00 -1.000000e+00
      outer loop
         vertex 1.496681e+00 1.087403e+00 0.000000e+00
         vertex 1.500000e+00 2.598076e+00 0.000000e+00
         vertex 2.598076e+00 1.500000e+00 0.000000e+00
      endloop
   endfacet
   facet normal 0.000000e+00 0.000000e+00 -1.000000e+00
      outer loop
         vertex 5.716814e-01 1.759455e+00 0.000000e+00
         vertex 9.184850e-16 3.000000e+00 0.000000e+00
         vertex 1.500000e+00 2.598076e+00 0.000000e+00
      endloop
   endfacet
   facet normal 0.000000e+00 0.000000e+00 -1.000000e+00
      outer loop
         vertex -5.716814e-01 1.759455e+00 0.000000e+00
         vertex -1.500000e+00 2.598076e+00 0.000000e+00
         vertex 9.184850e-16 3.000000e+00 0.000000e+00
      endloop
   endfacet
   facet normal 0.000000e+00 0.000000e+00 -1.000000e+00
      outer loop
         vertex -1.496681e+00 1.087403e+00 0.000000e+00
         vertex -2.598076e+00 1.500000e+00 0.000000e+00
         vertex -1.500000e+00 2.598076e+00 0.000000e+00
      endloop
   endfacet
   facet normal 0.000000e+00 0.000000e+00 -1.000000e+00
      outer loop
         vertex -1.850000e+00 2.265597e-16 0.000000e+00
         vertex -3.000000e+00 3.673940e-16 0.000000e+00
         vertex -2.598076e+00 1.500000e+00 0.000000e+00
      endloop
   endfacet
   facet normal -0.000000e+00 0.000000e+00 -1.000000e+00
      outer loop
         vertex -2.598076e+00 1.500000e+00 0.000000e+00
         vertex -1.496681e+00 1.087403e+00 0.000000e+00
         vertex -1.850000e+00 2.265597e-16 0.000000e+00
      endloop
   endfacet
   facet normal -0.000000e+00 0.000000e+00 -1.000000e+00
      outer loop
         vertex -1.500000e+00 2.598076e+00 0.000000e+00
         vertex -5.716814e-01 1.759455e+00 0.000000e+00
         vertex -1.496681e+00 1.087403e+00 0.000000e+00
      endloop
   endfacet
   facet normal 0.000000e+00 0.000000e+00 -1.000000e+00
      outer loop
         vertex 9.184850e-16 3.000000e+00 0.000000e+00
         vertex 5.716814e-01 1.759455e+00 0.000000e+00
         vertex -5.716814e-01 1.759455e+00 0.000000e+00
      endloop
   endfacet
   facet normal 0.000000e+00 0.000000e+00 -1.000000e+00
      outer loop
         vertex 1.500000e+00 2.598076e+00 0.000000e+00
         vertex 1.496681e+00 1.087403e+00 0.000000e+00
         vertex 5.716814e-01 1.759455e+00 0.000000e+00
      endloop
   endfacet
   facet normal 0.000000e+00 0.000000e+00 -1.000000e+00
      outer loop
         vertex 2.598076e+00 1.500000e+00 0.000000e+00
         vertex 1.850000e+00 -4.531193e-16 0.000000e+00
         vertex 1.496681e+00 1.087403e+00 0.000000e+00
      endloop
   endfacet
   facet normal 0.000000e+00 0.000000e+00 -1.000000e+00
      outer loop
         vertex 2.598076e+00 -1.500000e+00 0.000000e+00
         vertex 1.496681e+00 -1.087403e+00 0.000000e+00
         vertex 1.850000e+00 -4.531193e-16 0.000000e+00
      endloop
   endfacet
   facet normal 0.000000e+00 0.000000e+00 -1.000000e+00
      outer loop
         vertex 1.500000e+00 -2.598076e+00 0.000000e+00
         vertex 5.716814e-01 -1.759455e+00 0.000000e+00
         vertex 1.496681e+00 -1.087403e+00 0.000000e+00
      endloop
   endfacet
   facet normal 0.000000e+00 0.000000e+00 -1.000000e+00
      outer loop
         vertex -5.510911e-16 -3.000000e+00 0.000000e+00
         vertex -5.716814e-01 -1.759455e+00 0.000000e+00
         vertex 5.716814e-01 -1.759455e+00 0.000000e+00
      endloop
   endfacet
   facet normal 0.000000e+00 -0.000000e+00 -1.000000e+00
      outer loop
         vertex -1.500000e+00 -2.598076e+00 0.000000e+00
         vertex -1.496681e+00 -1.087403e+00 0.000000e+00
         vertex -5.716814e-01 -1.759455e+00 0.000000e+00
      endloop
   endfacet
   facet normal 0.000000e+00 -0.000000e+00 -1.000000e+00
      outer loop
         vertex -2.598076e+00 -1.500000e+00 0.000000e+00
         vertex -1.850000e+00 2.265597e-16 0.000000e+00
         vertex -1.496681e+00 -1.087403e+00 0.000000e+00
      endloop
   endfacet
   facet normal -0.000000e+00 0.000000e+00 1.000000e+00
      outer loop
         vertex -2.598076e+00 1.500000e+00 2.500000e+00
         vertex -3.000000e+00 3.673940e-16 2.500000e+00
         vertex -1.850000e+00 2.265597e-16 2.500000e+00
      endloop
   endfacet
   facet normal 0.000000e+00 -0.000000e+00 1.000000e+00
      outer loop
         vertex -3.000000e+00 3.673940e-16 2.500000e+00
         vertex -2.598076e+00 -1.500000e+00 2.500000e+00
         vertex -1.850000e+00 2.265597e-16 2.500000e+00
      endloop
   endfacet
   facet normal 0.000000e+00 -0.000000e+00 1.000000e+00
      outer loop
         vertex -2.598076e+00 -1.500000e+00 2.500000e+00
         vertex -1.500000e+00 -2.598076e+00 2.500000e+00
         vertex -1.496681e+00 -1.087403e+00 2.500000e+00
      endloop
   endfacet
   facet normal 0.000000e+00 0.000000e+00 1.000000e+00
      outer loop
         vertex -1.500000e+00 -2.598076e+00 2.500000e+00
         vertex -5.510911e-16 -3.000000e+00 2.500000e+00
         vertex -5.716814e-01 -1.759455e+00 2.500000e+00
      endloop
   endfacet
   facet normal 0.000000e+00 0.000000e+00 1.000000e+00
      outer loop
         vertex -5.510911e-16 -3.000000e+00 2.500000e+00
         vertex 1.500000e+00 -2.598076e+00 2.500000e+00
         vertex 5.716814e-01 -1.759455e+00 2.500000e+00
      endloop
   endfacet
   facet normal 0.000000e+00 0.000000e+00 1.000000e+00
      outer loop
         vertex 1.500000e+00 -2.598076e+00 2.500000e+00
         vertex 2.598076e+00 -1.500000e+00 2.500000e+00
         vertex 1.496681e+00 -1.087403e+00 2.500000e+00
      endloop
   endfacet
   facet normal 0.000000e+00 0.000000e+00 1.000000e+00
      outer loop
         vertex 2.598076e+00 -1.500000e+00 2.500000e+00
         vertex 3.000000e+00 -2.067056e-15 2.500000e+00
         vertex 1.850000e+00 -4.531193e-16 2.500000e+00
      endloop
   endfacet
   facet normal 0.000000e+00 0.000000e+00 1.000000e+00
      outer loop
         vertex 3.000000e+00 -2.067056e-15 2.500000e+00
         vertex 2.598076e+00 1.500000e+00 2.500000e+00
         vertex 1.850000e+00 -4.531193e-16 2.500000e+00
      endloop
   endfacet
   facet normal 0.000000e+00 0.000000e+00 1.000000e+00
      outer loop
         vertex 2.598076e+00 1.500000e+00 2.500000e+00
         vertex 1.500000e+00 2.598076e+00 2.500000e+00
         vertex 1.496681e+00 1.087403e+00 2.500000e+00
      endloop
   endfacet
   facet normal 0.000000e+00 0.000000e+00 1.000000e+00
      outer loop
         vertex 1.500000e+00 2.598076e+00 2.500000e+00
         vertex 9.184850e-16 3.000000e+00 2.500000e+00
         vertex 5.716814e-01 1.759455e+00 2.500000e+00
      endloop
   endfacet
   facet normal -0.000000e+00 0.000000e+00 1.000000e+00
      outer loop
         vertex 9.184850e-16 3.000000e+00 2.500000e+00
         vertex -1.500000e+00 2.598076e+00 2.500000e+00
         vertex -5.716814e-01 1.759455e+00 2.500000e+00
      endloop
   endfacet
   facet normal -0.000000e+00 0.000000e+00 1.000000e+00
      outer loop
         vertex -1.500000e+00 2.598076e+00 2.500000e+00
         vertex -2.598076e+00 1.500000e+00 2.500000e+00
         vertex -1.496681e+00 1.087403e+00 2.500000e+00
      endloop
   endfacet
   facet normal 0.000000e+00 0.000000e+00 1.000000e+00
      outer loop
         vertex -1.496681e+00 -1.087403e+00 2.500000e+00
         vertex -1.850000e+00 2.265597e-16 2.500000e+00
         vertex -2.598076e+00 -1.500000e+00 2.500000e+00
      endloop
   endfacet
   facet normal 0.000000e+00 0.000000e+00 1.000000e+00
      outer loop
         vertex -1.850000e+00 2.265597e-16 2.500000e+00
         vertex -1.496681e+00 1.087403e+00 2.500000e+00
         vertex -2.598076e+00 1.500000e+00 2.500000e+00
      endloop
   endfacet
   facet normal 0.000000e+00 0.000000e+00 1.000000e+00
      outer loop
         vertex -1.496681e+00 1.087403e+00 2.500000e+00
         vertex -5.716814e-01 1.759455e+00 2.500000e+00
         vertex -1.500000e+00 2.598076e+00 2.500000e+00
      endloop
   endfacet
   facet normal 0.000000e+00 0.000000e+00 1.000000e+00
      outer loop
         vertex -5.716814e-01 1.759455e+00 2.500000e+00
         vertex 5.716814e-01 1.759455e+00 2.500000e+00
         vertex 9.184850e-16 3.000000e+00 2.500000e+00
      endloop
   endfacet
   facet normal 0.000000e+00 -0.000000e+00 1.000000e+00
      outer loop
         vertex 5.716814e-01 1.759455e+00 2.500000e+00
         vertex 1.496681e+00 1.087403e+00 2.500000e+00
         vertex 1.500000e+00 2.598076e+00 2.500000e+00
      endloop
   endfacet
   facet normal 0.000000e+00 -0.000000e+00 1.000000e+00
      outer loop
         vertex 1.496681e+00 1.087403e+00 2.500000e+00
         vertex 1.850000e+00 -4.531193e-16 2.500000e+00
         vertex 2.598076e+00 1.500000e+00 2.500000e+00
      endloop
   endfacet
   facet normal -0.000000e+00 0.000000e+00 1.000000e+00
      outer loop
         vertex 1.850000e+00 -4.531193e-16 2.500000e+00
         vertex 1.496681e+00 -1.087403e+00 2.500000e+00
         vertex 2.598076e+00 -1.500000e+00 2.500000e+00
      endloop
   endfacet
   facet normal -0.000000e+00 0.000000e+00 1.000000e+00
      outer loop
         vertex 1.496681e+00 -1.087403e+00 2.500000e+00
         vertex 5.716814e-01 -1.759455e+00 2.500000e+00
         vertex 1.500000e+00 -2.598076e+00 2.500000e+00
      endloop
   endfacet
   facet normal -0.000000e+00 0.000000e+00 1.000000e+00
      outer loop
         vertex 5.716814e-01 -1.759455e+00 2.500000e+00
         vertex -5.716814e-01 -1.759455e+00 2.500000e+00
         vertex -5.510911e-16 -3.000000e+00 2.500000e+00
      endloop
   endfacet
   facet normal 0.000000e+00 0.000000e+00 1.000000e+00
      outer loop
         vertex -5.716814e-01 -1.759455e+00 2.500000e+00
         vertex -1.496681e+00 -1.087403e+00 2.500000e+00
         vertex -1.500000e+00 -2.598076e+00 2.500000e+00
      endloop
   endfacet
   facet normal 9.510565e-01 3.090170e-01 -0.000000e+00
      outer loop
         vertex -1.496681e+00 -1.087403e+00 2.500000e+00
         vertex -1.496681e+00 -1.087403e+00 0.000000e+00
         vertex -1.850000e+00 2.265597e-16 0.000000e+00
      endloop
   endfacet
   facet normal 9.510565e-01 3.090170e-01 0.000000e+00
      outer loop
         vertex -1.850000e+00 2.265597e-16 2.500000e+00
         vertex -1.496681e+00 -1.087403e+00 2.500000e+00
         vertex -1.850000e+00 2.265597e-16 0.000000e+00
      endloop
   endfacet
   facet normal 5.877853e-01 8.090170e-01 -0.000000e+00
      outer loop
         vertex -5.716814e-01 -1.759455e+00 2.500000e+00
         vertex -5.716814e-01 -1.759455e+00 0.000000e+00
         vertex -1.496681e+00 -1.087403e+00 0.000000e+00
      endloop
   endfacet
   facet normal 5.877853e-01 8.090170e-01 0.000000e+00
      outer loop
         vertex -1.496681e+00 -1.087403e+00 2.500000e+00
         vertex -5.716814e-01 -1.759455e+00 2.500000e+00
         vertex -1.496681e+00 -1.087403e+00 0.000000e+00
      endloop
   endfacet
   facet normal 0.000000e+00 1.000000e+00 -0.000000e+00
      outer loop
         vertex 5.716814e-01 -1.759455e+00 2.500000e+00
         vertex 5.716814e-01 -1.759455e+00 0.000000e+00
         vertex -5.716814e-01 -1.759455e+00 0.000000e+00
      endloop
   endfacet
   facet normal 0.000000e+00 1.000000e+00 0.000000e+00
      outer loop
         vertex -5.716814e-01 -1.759455e+00 2.500000e+00
         vertex 5.716814e-01 -1.759455e+00 2.500000e+00
         vertex -5.716814e-01 -1.759455e+00 0.000000e+00
      endloop
   endfacet
   facet normal -5.877853e-01 8.090170e-01 0.000000e+00
      outer loop
         vertex 1.496681e+00 -1.087403e+00 2.500000e+00
         vertex 1.496681e+00 -1.087403e+00 0.000000e+00
         vertex 5.716814e-01 -1.759455e+00 0.000000e+00
      endloop
   endfacet
   facet normal -5.877853e-01 8.090170e-01 0.000000e+00
      outer loop
         vertex 5.716814e-01 -1.759455e+00 2.500000e+00
         vertex 1.496681e+00 -1.087403e+00 2.500000e+00
         vertex 5.716814e-01 -1.759455e+00 0.000000e+00
      endloop
   endfacet
   facet normal -9.510565e-01 3.090170e-01 0.000000e+00
      outer loop
         vertex 1.850000e+00 -4.531193e-16 2.500000e+00
         vertex 1.850000e+00 -4.531193e-16 0.000000e+00
         vertex 1.496681e+00 -1.087403e+00 0.000000e+00
      endloop
   endfacet
   facet normal -9.510565e-01 3.090170e-01 0.000000e+00
      outer loop
         vertex 1.496681e+00 -1.087403e+00 2.500000e+00
         vertex 1.850000e+00 -4.531193e-16 2.500000e+00
         vertex 1.496681e+00 -1.087403e+00 0.000000e+00
      endloop
   endfacet
   facet normal -9.510565e-01 -3.090170e-01 0.000000e+00
      outer loop
         vertex 1.496681e+00 1.087403e+00 2.500000e+00
         vertex 1.496681e+00 1.087403e+00 0.000000e+00
         vertex 1.850000e+00 -4.531193e-16 0.000000e+00
      endloop
   endfacet
   facet normal -9.510565e-01 -3.090170e-01 0.000000e+00
      outer loop
         vertex 1.850000e+00 -4.531193e-16 2.500000e+00
         vertex 1.496681e+00 1.087403e+00 2.500000e+00
         vertex 1.850000e+00 -4.531193e-16 0.000000e+00
      endloop
   endfacet
   facet normal -5.877853e-01 -8.090170e-01 0.000000e+00
      outer loop
         vertex 5.716814e-01 1.759455e+00 2.500000e+00
         vertex 5.716814e-01 1.759455e+00 0.000000e+00
         vertex 1.496681e+00 1.087403e+00 0.000000e+00
      endloop
   endfacet
   facet normal -5.877853e-01 -8.090170e-01 0.000000e+00
      outer loop
         vertex 1.496681e+00 1.087403e+00 2.500000e+00
         vertex 5.716814e-01 1.759455e+00 2.500000e+00
         vertex 1.496681e+00 1.087403e+00 0.000000e+00
      endloop
   endfacet
   facet normal 0.000000e+00 -1.000000e+00 0.000000e+00
      outer loop
         vertex -5.716814e-01 1.759455e+00 2.500000e+00
         vertex -5.716814e-01 1.759455e+00 0.000000e+00
         vertex 5.716814e-01 1.759455e+00 0.000000e+00
      endloop
   endfacet
   facet normal 0.000000e+00 -1.000000e+00 0.000000e+00
      outer loop
         vertex 5.716814e-01 1.759455e+00 2.500000e+00
         vertex -5.716814e-01 1.759455e+00 2.500000e+00
         vertex 5.716814e-01 1.759455e+00 0.000000e+00
      endloop
   endfacet
   facet normal 5.877853e-01 -8.090170e-01 0.000000e+00
      outer loop
         vertex -1.496681e+00 1.087403e+00 2.500000e+00
         vertex -1.496681e+00 1.087403e+00 0.000000e+00
         vertex -5.716814e-01 1.759455e+00 0.000000e+00
      endloop
   endfacet
   facet normal 5.877853e-01 -8.090170e-01 0.000000e+00
      outer loop
         vertex -5.716814e-01 1.759455e+00 2.500000e+00
         vertex -1.496681e+00 1.087403e+00 2.500000e+00
         vertex -5.716814e-01 1.759455e+00 0.000000e+00
      endloop
   endfacet
   facet normal 9.510565e-01 -3.090170e-01 0.000000e+00
      outer loop
         vertex -1.850000e+00 6.796790e-16 2.500000e+00
         vertex -1.850000e+00 6.796790e-16 0.000000e+00
         vertex -1.496681e+00 1.087403e+00 0.000000e+00
      endloop
   endfacet
   facet normal 9.510565e-01 -3.090170e-01 0.000000e+00
      outer loop
         vertex -1.496681e+00 1.087403e+00 2.500000e+00
         vertex -1.850000e+00 6.796790e-16 2.500000e+00
         vertex -1.496681e+00 1.087403e+00 0.000000e+00
      endloop
   endfacet
   facet normal -9.659258e-01 -2.588191e-01 0.000000e+00
      outer loop
         vertex -3.000000e+00 3.673940e-16 0.000000e+00
         vertex -2.598076e+00 -1.500000e+00 0.000000e+00
         vertex -2.598076e+00 -1.500000e+00 2.500000e+00
      endloop
   endfacet
   facet normal -9.659258e-01 -2.588191e-01 0.000000e+00
      outer loop
         vertex -3.000000e+00 3.673940e-16 0.000000e+00
         vertex -2.598076e+00 -1.500000e+00 2.500000e+00
         vertex -3.000000e+00 3.673940e-16 2.500000e+00
      endloop
   endfacet
   facet normal -7.071068e-01 -7.071068e-01 0.000000e+00
      outer loop
         vertex -2.598076e+00 -1.500000e+00 0.000000e+00
         vertex -1.500000e+00 -2.598076e+00 0.000000e+00
         vertex -1.500000e+00 -2.598076e+00 2.500000e+00
      endloop
   endfacet
   facet normal -7.071068e-01 -7.071068e-01 0.000000e+00
      outer loop
         vertex -2.598076e+00 -1.500000e+00 0.000000e+00
         vertex -1.500000e+00 -2.598076e+00 2.500000e+00
         vertex -2.598076e+00 -1.500000e+00 2.500000e+00
      endloop
   endfacet
   facet normal -2.588191e-01 -9.659258e-01 0.000000e+00
      outer loop
         vertex -1.500000e+00 -2.598076e+00 0.000000e+00
         vertex -5.510911e-16 -3.000000e+00 0.000000e+00
         vertex -5.510911e-16 -3.000000e+00 2.500000e+00
      endloop
   endfacet
   facet normal -2.588191e-01 -9.659258e-01 0.000000e+00
      outer loop
         vertex -1.500000e+00 -2.598076e+00 0.000000e+00
         vertex -5.510911e-16 -3.000000e+00 2.500000e+00
         vertex -1.500000e+00 -2.598076e+00 2.500000e+00
      endloop
   endfacet
   facet normal 2.588191e-01 -9.659258e-01 0.000000e+00
      outer loop
         vertex -5.510911e-16 -3.000000e+00 0.000000e+00
         vertex 1.500000e+00 -2.598076e+00 0.000000e+00
         vertex 1.500000e+00 -2.598076e+00 2.500000e+00
      endloop
   endfacet
   facet normal 2.588191e-01 -9.659258e-01 0.000000e+00
      outer loop
         vertex -5.510911e-16 -3.000000e+00 0.000000e+00
         vertex 1.500000e+00 -2.598076e+00 2.500000e+00
         vertex -5.510911e-16 -3.000000e+00 2.500000e+00
      endloop
   endfacet
   facet normal 7.071068e-01 -7.071068e-01 0.000000e+00
      outer loop
         vertex 1.500000e+00 -2.598076e+00 0.000000e+00
         vertex 2.598076e+00 -1.500000e+00 0.000000e+00
         vertex 2.598076e+00 -1.500000e+00 2.500000e+00
      endloop
   endfacet
   facet normal 7.071068e-01 -7.071068e-01 0.000000e+00
      outer loop
         vertex 1.500000e+00 -2.598076e+00 0.000000e+00
         vertex 2.598076e+00 -1.500000e+00 2.500000e+00
         vertex 1.500000e+00 -2.598076e+00 2.500000e+00
      endloop
   endfacet
   facet normal 9.659258e-01 -2.588191e-01 0.000000e+00
      outer loop
         vertex 2.598076e+00 -1.500000e+00 0.000000e+00
         vertex 3.000000e+00 -2.067056e-15 0.000000e+00
         vertex 3.000000e+00 -2.067056e-15 2.500000e+00
      endloop
   endfacet
   facet normal 9.659258e-01 -2.588191e-01 0.000000e+00
      outer loop
         vertex 2.598076e+00 -1.500000e+00 0.000000e+00
         vertex 3.000000e+00 -2.067056e-15 2.500000e+00
         vertex 2.598076e+00 -1.500000e+00 2.500000e+00
      endloop
   endfacet
   facet normal 9.659258e-01 2.588191e-01 -0.000000e+00
      outer loop
         vertex 3.000000e+00 -2.067056e-15 0.000000e+00
         vertex 2.598076e+00 1.500000e+00 0.000000e+00
         vertex 2.598076e+00 1.500000e+00 2.500000e+00
      endloop
   endfacet
   facet normal 9.659258e-01 2.588191e-01 0.000000e+00
      outer loop
         vertex 3.000000e+00 -2.067056e-15 0.000000e+00
         vertex 2.598076e+00 1.500000e+00 2.500000e+00
         vertex 3.000000e+00 -2.067056e-15 2.500000e+00
      endloop
   endfacet
   facet normal 7.071068e-01 7.071068e-01 -0.000000e+00
      outer loop
         vertex 2.598076e+00 1.500000e+00 0.000000e+00
         vertex 1.500000e+00 2.598076e+00 0.000000e+00
         vertex 1.500000e+00 2.598076e+00 2.500000e+00
      endloop
   endfacet
   facet normal 7.071068e-01 7.071068e-01 0.000000e+00
      outer loop
         vertex 2.598076e+00 1.500000e+00 0.000000e+00
         vertex 1.500000e+00 2.598076e+00 2.500000e+00
         vertex 2.598076e+00 1.500000e+00 2.500000e+00
      endloop
   endfacet
   facet normal 2.588191e-01 9.659258e-01 -0.000000e+00
      outer loop
         vertex 1.500000e+00 2.598076e+00 0.000000e+00
         vertex 9.184850e-16 3.000000e+00 0.000000e+00
         vertex 9.184850e-16 3.000000e+00 2.500000e+00
      endloop
   endfacet
   facet normal 2.588191e-01 9.659258e-01 0.000000e+00
      outer loop
         vertex 1.500000e+00 2.598076e+00 0.000000e+00
         vertex 9.184850e-16 3.000000e+00 2.500000e+00
         vertex 1.500000e+00 2.598076e+00 2.500000e+00
      endloop
   endfacet
   facet normal -2.588191e-01 9.659258e-01 0.000000e+00
      outer loop
         vertex 9.184850e-16 3.000000e+00 0.000000e+00
         vertex -1.500000e+00 2.598076e+00 0.000000e+00
         vertex -1.500000e+00 2.598076e+00 2.500000e+00
      endloop
   endfacet
   facet normal -2.588191e-01 9.659258e-01 0.000000e+00
      outer loop
         vertex 9.184850e-16 3.000000e+00 0.000000e+00
         vertex -1.500000e+00 2.598076e+00 2.500000e+00
         vertex 9.184850e-16 3.000000e+00 2.500000e+00
      endloop
   endfacet
   facet normal -7.071068e-01 7.071068e-01 0.000000e+00
      outer loop
         vertex -1.500000e+00 2.598076e+00 0.000000e+00
         vertex -2.598076e+00 1.500000e+00 0.000000e+00
         vertex -2.598076e+00 1.500000e+00 2.500000e+00
      endloop
   endfacet
   facet normal -7.071068e-01 7.071068e-01 0.000000e+00
      outer loop
         vertex -1.500000e+00 2.598076e+00 0.000000e+00
         vertex -2.598076e+00 1.500000e+00 2.500000e+00
         vertex -1.500000e+00 2.598076e+00 2.500000e+00
      endloop
   endfacet
   facet normal -9.659258e-01 2.588191e-01 0.000000e+00
      outer loop
         vertex -2.598076e+00 1.500000e+00 0.000000e+00
         vertex -3.000000e+00 1.102182e-15 0.000000e+00
         vertex -3.000000e+00 1.102182e-15 2.500000e+00
      endloop
   endfacet
   facet normal -9.659258e-01 2.588191e-01 0.000000e+00
      outer loop
         vertex -2.598076e+00 1.500000e+00 0.000000e+00
         vertex -3.000000e+00 1.102182e-15 2.500000e+00
         vertex -2.598076e+00 1.500000e+00 2.500000e+00
      endloop
   endfacet
endsolid
